<?xml version="1.0" standalone="no"?><!DOCTYPE svg PUBLIC "-//W3C//DTD SVG 1.1//EN" "http://www.w3.org/Graphics/SVG/1.1/DTD/svg11.dtd"><svg t="1598720435052" class="icon" viewBox="0 0 1024 1024" version="1.1" xmlns="http://www.w3.org/2000/svg" p-id="938" xmlns:xlink="http://www.w3.org/1999/xlink" width="200" height="200"><defs><style type="text/css">html, * { user-select: text !important; }
</style></defs><path d="M579.1 455.7c-9.8-8.6-18.8-6.9-28.5 2.8-7 7-4.8 13.9 6.6 30.8 5.2 7.7 6.2 16.6 1.1 25.7-6.4 11.4-21.2 18.2-33.4 21.1-29.8 7.2-55.9-3.9-86.9 6.4-11.8 3.9-17.1 21.4-3.8 28.3 21.9 11.5 50.7 22.7 113.7-1.4 29.3-11.2 46.1-39.3 52.3-61.2 5.4-19.3 0.4-33.7-21.1-52.5z m8.4 43.7c-3.6 2.1-8.1 0.8-10.2-2.7-2.1-3.6-0.8-8.1 2.7-10.2 3.6-2.1 8.1-0.8 10.2 2.7 2.1 3.6 0.9 8.1-2.7 10.2zM614.1 553.1c-6.5-8.6-14.6-14.4-24.8-8.5-8.4 4.9-12.6 14.4-6 23 1.9 2.5 9.2 9.2 6.7 21.6-2.5 12.4-18.2 21.7-31.6 27.9-12.8 5.9-30-1.1-40.7 8.7-9.2 8.3-5.7 22 4 29.9 12.2 9.9 31 14.8 48.2 14.5 16.8-0.4 32.8-10 44-22 24.9-26.9 21.7-66.6 0.2-95.1z m9.4 55.6c-3.6 2.1-8.1 0.8-10.2-2.7s-0.8-8.1 2.7-10.2 8.1-0.8 10.2 2.7c2.1 3.6 0.9 8.2-2.7 10.2z" fill="#FFCD5C" p-id="939"></path><path d="M538 384.5c-9.8-8.6-18.8-6.9-28.5 2.8-7 7-4.8 13.9 6.6 30.8 5.2 7.7 6.2 16.6 1.1 25.7-6.4 11.4-21.2 18.2-33.4 21.1-29.8 7.2-55.9-3.9-86.9 6.4-11.8 3.9-17.1 21.4-3.8 28.3 21.9 11.5 50.7 22.7 113.7-1.4 29.3-11.2 46.1-39.3 52.3-61.2 5.5-19.3 0.4-33.6-21.1-52.5z m11.9 49.8c-3.6 2.1-8.1 0.8-10.2-2.7-2.1-3.6-0.8-8.1 2.7-10.2 3.6-2.1 8.1-0.8 10.2 2.7 2.1 3.6 0.9 8.1-2.7 10.2zM458.7 316c4.3 15.1 38.9 12.3-3.9 48.4-5.2 4.4-48 29.5-83.9 29.8-10.8 0.1-22.6 10.2-23.5 21.9-0.9 11.7 10.6 22.4 21.5 22.4 25.5 0 86.6-20 124.9-50.3 19.5-15.5 28.2-41.7 15.2-64.5-10.9-19.2-55.2-24.9-50.3-7.7z m41.6 27.7c-3.6 2.1-8.1 0.8-10.2-2.7-2.1-3.6-0.8-8.1 2.7-10.2 3.6-2.1 8.1-0.8 10.2 2.7 2.1 3.6 0.9 8.1-2.7 10.2zM389.7 188.9c-15.2-10.8-40.8-18.2-72.1-5.9-23.4 9.2-29.7 23.6-36 40.4-9 24 19.3 57.9 41.2 44.3 13.3-8.3 46.8-40.1 70-31 21.8 8.6-42.7 71-65.3 86.7-20.9 14.6 1.6 52.9 22.7 38.2 20.4-14.2 25.7-16.8 45.1-32.7 76.8-62.9 23.5-119.4-5.6-140z" fill="#FFCD5C" p-id="940"></path><path d="M756.4 909.8L618.7 671.4c29.6-22 45.5-63.7 43.8-94.4-1.8-33.9-16.1-56.3-46-71.8 8.3-37.9-3.1-66.8-35.4-87.3 0.7-29.6-14.9-54.7-46.6-74.9l-0.6-0.3c1.2-8.1 0.9-16.6-1.1-25.4-7.7-33.3-33.3-53.8-74-58.7 0.7-6.5 0.4-12.5-0.2-17.9-1.9-16.2-15.1-50.6-37.6-73-20.6-20.4-68.6-36.9-105.6-21.9l-25.1-43.2c-3.2-5.6-10.4-7.5-16-4.3s-7.5 10.4-4.3 16l25.4 43.7c-30 24.9-38.6 68.6-18.5 103.5 5.2 9.1 12.3 14.8 21 17.2 18.6 5 39.7-7.3 64.1-21.4l5-2.9 4.8-2.8c5.1-2.9 10-5.8 14.7-8.6 0.4 1.4 0.5 2.6 0.2 3.5-5.9 19.5-35 43.5-62.6 64.4-16.2 12.3-20.9 31.3-11.7 47.3 4.6 7.9 12.7 13.9 22.3 16.3 8.9 2.3 17.9 1.2 25.3-3.1 0.2-0.1 0.5-0.3 0.7-0.4 27.5-16.9 47.5-32.6 62-47.1 16-2.7 32.5 1.3 37.2 6.9 0.7 0.8 1.3 1.5 0.3 4-4.7 12-31.6 33.2-76.9 42.5-17.6 3.6-50.2 16.7-47.8 40.1 1.1 10.8 5.8 19.6 13.4 25.5 6 4.6 16.6 9.4 33.8 6.7 36.4-5.8 58.8-15.5 90-32.4 1.2-0.7 2.4-1.3 3.6-2 4.9-2.8 9.7-5.9 14.3-9.3 5.9 4.5 14.1 16.8 13.5 22-2.5 19.9-29.9 28.1-83.8 25-19.4-1.1-43.5 6.2-47.5 30.4-1.5 8.9 0.6 17.1 5.9 23.8 10.9 13.6 31.3 15.8 37.3 16.1 34.4 2 51 2.4 83.9-9.1 8.2-2.9 16.7-6.7 25.1-11.5 6.8-3.9 13.5-8.5 19.8-13.8 1.5 1.2 1.8 1.8 1.9 2 0.1 0.2 0.3 1.5-1.2 6.8-7.8 28.9-39.1 29.3-79.1 26.9l-4.9-0.3c-19.4-1.1-43.5 6.2-47.5 30.4-1.5 8.9 0.6 17.1 5.9 23.8 10.9 13.6 31.3 15.8 37.3 16.1 34.4 2 51 2.4 83.9-9.1 8-2.8 15.6-6.3 22.7-10.4 3.1-1.8 6.1-3.7 9-5.8 2.7 1.5 6.6 5.2 9.7 9.6-8.2 17.7-31.7 24.7-50.9 30.4-16.6 5-29.8 8.9-34.2 20-1.6 3.9-2.5 10.2 1.9 17.7 20.1 34.8 62.1 49.2 98.6 35.8l138.1 239c3.2 5.6 10.4 7.5 16 4.3s7.7-10.6 4.4-16.2z m-407.9-559c-2.9 1.7-6.2 1.3-8 0.8-3.4-0.9-6.4-2.9-7.8-5.3-4.7-8.2 3-15 5.5-16.8 37.2-28.1 63.5-51.8 70.9-76.3 4.3-14-3.7-26.2-8.4-33.5-1.7-2.6-4.4-4.5-7.5-5.1-2.8-0.6-5.7-0.1-8.2 1.3-0.3 0.1-0.5 0.3-0.8 0.5-6.8 4.7-15.2 9.5-24.1 14.6l-4.9 2.8-5 2.9c-18.2 10.6-37.1 21.5-46.3 19-1.6-0.4-4-1.5-6.7-6.2-16-27.7-6.5-63.3 21.3-79.3 26.4-15.2 69.7-2.2 86 14 18.1 18 29.5 47.5 30.8 59 1.6 13.9 5.8 50.8-86.8 107.6z m113.2 45.6c-29.4 16-49.3 24.5-82.5 29.8-7 1.1-12.6 0.4-15.8-2.1-2.4-1.8-3.8-4.9-4.3-9.1 1.2-3.7 14.8-11.8 29.2-14.8 46-9.5 84.6-32.9 94-57 3.9-10 2.4-19.8-4.3-27.7-7.8-9.2-21.1-14.1-35.1-15.6 4.4-6.5 7.6-12.6 10.1-18.5 32.8 3 51.5 16.8 57.1 41 7.1 31.4-21.6 59.5-48.4 74z m30.6 95.3c-29.8 10.4-43.9 9.6-74.8 7.8-7.5-0.4-16.9-3.1-20.3-7.4-0.8-1.1-1.6-2.4-1.1-5.3 1.9-11.6 20.9-10.9 23-10.7 27.9 1.6 101.9 5.9 108.4-45.5 1.9-14.7-10.6-30.9-14.4-35.5-1.4-1.7-2.9-3.4-4.5-4.9 7.1-7.4 13.2-15.5 17.7-24.4 34.5 23.9 33.8 48.2 29 66.8-7.4 30-38.6 50.5-63 59.1z m41.1 71.1c-29.8 10.4-43.9 9.6-74.8 7.8-7.5-0.4-16.9-3.1-20.3-7.4-0.8-1.1-1.6-2.4-1.1-5.3 1.9-11.6 20.9-10.9 23-10.7l4.9 0.3c23.6 1.4 55 3.3 77.6-9.7 11.7-6.8 21-17.5 25.6-34.5 3.9-14.3 2.3-23.2-7-31.6 6.6-8.3 11.9-17.7 15.3-28.2 18.2 14.9 22.7 33.6 16 60.3-6.6 26.3-28.7 48.4-59.2 59z m-12.3 74.5c4.1-1.9 11.5-4.1 17.3-5.9 23.4-7 58.7-17.6 68.3-50.9 0.8-2.9 0.5-5.9-0.8-8.6-2.6-5.2-7.9-13-14.8-18.9 7.2-7.7 13.2-16.2 17.6-25.4 23.3 13.2 29.1 29.9 30.2 50.5 1.2 21.5-10.7 61.1-40 78-26.8 15.7-61.2 7.2-77.8-18.8z" fill="#353535" p-id="941"></path></svg>