<?xml version="1.0" standalone="no"?><!DOCTYPE svg PUBLIC "-//W3C//DTD SVG 1.1//EN" "http://www.w3.org/Graphics/SVG/1.1/DTD/svg11.dtd"><svg t="1598720419182" class="icon" viewBox="0 0 1024 1024" version="1.1" xmlns="http://www.w3.org/2000/svg" p-id="791" xmlns:xlink="http://www.w3.org/1999/xlink" width="200" height="200"><defs><style type="text/css">html, * { user-select: text !important; }
</style></defs><path d="M869.4 194.4l82.7-82.7c5.7-5.7 17.6-25.5 12.7-30.4-4.9-4.9-24.8 7.1-30.4 12.7L852 176.4M289.1 774.7L85.6 978.2l-17.7-17.7L271 757.3zM296.9 731.5L409 619.3l14.5 21-112.2 112.3M434.3 594.1l111.6-111.6 18.3 17.1-113.4 113.5M571.8 456.6L684 344.3l20.3 15.3L589 474.8M710.9 317.5l113.3-113.3 17.3 18.1-113.7 113.8" fill="#322915" p-id="792"></path><path d="M827 379.6c-2.8-14.3-11.7-50.2-43-82-32.6-33.2-70.2-42.3-84.4-45-6.1-1.5-10.6-6.6-11.4-12.7-0.8-6.4 2.5-12.8 8.3-15.9 17.7-17.4 35.3-34.8 53-52.2 2.6-1.7 6.6-3.9 11.8-5 11.8-2.4 21.3 2.6 24.2 4.2 18.7 8.8 46.1 24.4 72.9 51.1 28.6 28.6 44.5 58.1 53.1 77.6 1 1.3 7.4 10.3 4.6 21.8-1.9 7.7-7 12.3-8.9 13.9L857 385.6c-3 5.3-8.3 8.8-13.9 8.9-7.7 0.2-14.9-6-16.1-14.9zM688.8 517.8c-2.8-14.3-11.7-50.2-43-82-32.6-33.2-70.2-42.3-84.4-45-6.1-1.5-10.6-6.6-11.4-12.7-0.8-6.4 2.5-12.8 8.3-15.9 17.7-17.4 35.3-34.8 53-52.2 2.6-1.7 6.6-3.9 11.8-5 11.8-2.4 21.3 2.6 24.2 4.2 18.7 8.8 46.1 24.4 72.9 51.1 28.6 28.6 44.5 58.1 53.1 77.6 1 1.3 7.4 10.3 4.6 21.8-1.9 7.7-7 12.3-8.9 13.9l-50.2 50.2c-3 5.3-8.3 8.8-13.9 8.9-7.8 0.3-14.9-6-16.1-14.9zM550.7 655.9c-2.8-14.3-11.7-50.2-43-82-32.6-33.2-70.2-42.3-84.4-45-6.1-1.5-10.6-6.6-11.4-12.7-0.8-6.4 2.5-12.8 8.3-15.9 17.7-17.4 35.3-34.8 53-52.2 2.6-1.7 6.6-3.9 11.8-5 11.8-2.4 21.3 2.6 24.2 4.2 18.7 8.8 46.1 24.4 72.9 51.1 28.6 28.6 44.5 58.1 53.1 77.6 1 1.3 7.4 10.3 4.6 21.8-1.9 7.7-7 12.3-8.9 13.9l-50.2 50.2c-3 5.3-8.3 8.8-13.9 8.9-7.7 0.3-14.9-6-16.1-14.9zM412.2 794.4c-2.8-14.3-11.7-50.2-43-82-32.6-33.2-70.2-42.3-84.4-45-6.1-1.5-10.6-6.6-11.4-12.7-0.8-6.4 2.5-12.8 8.3-15.9 17.7-17.4 35.3-34.8 53-52.2 2.6-1.7 6.6-3.9 11.8-5 11.8-2.4 21.3 2.6 24.2 4.2 18.7 8.8 46.1 24.4 72.9 51.1 28.6 28.6 44.5 58.1 53.1 77.6 1 1.3 7.4 10.3 4.6 21.8-1.9 7.7-7 12.3-8.9 13.9l-50.2 50.2c-3 5.3-8.3 8.8-13.9 8.9-7.7 0.2-14.9-6-16.1-14.9zM277.5 929.1c-2.8-14.3-11.7-50.2-43-82-32.6-33.2-70.2-42.3-84.4-45-6.1-1.5-10.6-6.6-11.4-12.7-0.8-6.4 2.5-12.8 8.3-15.9 17.7-17.4 35.3-34.8 53-52.2 2.6-1.7 6.6-3.9 11.8-5 11.8-2.4 21.3 2.6 24.2 4.2 18.7 8.8 46.1 24.4 72.9 51.1 28.6 28.6 44.5 58.1 53.1 77.6 1 1.3 7.4 10.3 4.6 21.8-1.9 7.7-7 12.3-8.9 13.9l-50.2 50.2c-3 5.3-8.3 8.8-13.9 8.9-7.8 0.3-14.9-6-16.1-14.9z" fill="#D38437" p-id="793"></path><path d="M887.4 302.3l-8 8c-4.2 4.2-4.5 11.8 0 15.9s11.5 4.4 15.9 0l8-8c4.2-4.2 4.5-11.8 0-15.9s-11.5-4.4-15.9 0z" fill="#322915" p-id="794"></path><path d="M858.9 330.8l-6.1 6.1c-1.8 1.8-3.2 4.2-5 6-0.6 0.6-1.7 1.5-2.1 1.6-2.2 0.8-0.5 0.3-1.7 0.2-0.5 0-0.5 0-1.1-0.4-1.6-1-2.7-3.1-3.4-6.4-0.5-2.4-1-4.7-1.6-7.1-3.8-15.3-9.8-30.1-17.6-43.8-20.7-36.5-54.6-64.1-94.1-78-5.7-2-11.5-3.7-17.3-5-4.2-1-10.1-1.9-7.3-6.9 0.2-0.4 1.5-1.3 2.2-1.8 2.6-2 4.8-4.3 7.2-6.6 4.7-4.6 9.4-9.2 14.1-13.9 9.1-9 18.3-18 27.4-27 3-2.9 5.1-5.4 9-6.6 4.2-1.4 8.4-1.3 12.6-0.1 0.8 0.2 1.6 0.5 2.4 0.8 3.4 1.2-0.9-0.5 0.7 0.3 1 0.5 1.9 1 2.9 1.5 3.4 1.8 6.9 3.4 10.4 5.2 17.3 9.2 33.6 20.3 48.3 33.3 18.6 16.5 34.7 35.5 47.7 56.7 4.9 8 9.3 16.2 13.4 24.6 3.2 6.8 7.3 10.6 5.8 17.8-1.2 5.9 1.7 12.2 7.9 13.8 5.6 1.5 12.6-1.9 13.8-7.9 2.3-11.2-0.2-20.4-5.7-30.1-4-7.1-7.1-14.7-11.1-21.7-12-21.2-27-40.9-44.2-58.1-16.8-16.8-36-31.5-56.6-43.4C793 124.2 774 113 754 120c-12.8 4.5-21.5 15.9-30.9 25.1-10.1 9.9-20.2 19.9-30.2 29.8-4.1 4-8.7 6.9-11.4 12.3-3 6.1-3.8 13.3-1.7 19.8 3.3 10.8 12.3 16.3 22.8 18.7 38.2 8.7 72.9 32.1 94.4 66.1 10 15.8 16.6 31.8 20.5 50.2 2.7 12.8 11 23.5 24.7 25 15.2 1.6 23.2-10.8 32.6-20.3 10.3-10.3-5.6-26.2-15.9-15.9z" fill="#322915" p-id="795"></path><path d="M645.7 281.5c26.9-0.8 53.5 2.8 79.1 11.1 14.3 4.6 28.1 10.5 41.3 17.8 5.7 3.1 11.3 6.5 16.7 10.1 4.6 3.1 9.1 6.4 12.5 9.1 7.9 6.4 15.3 13.4 22.2 20.9 9.9 10.6 25.8-5.3 15.9-15.9-37.3-40.1-89.6-65.5-143.6-73.1-14.6-2-29.3-3-44-2.5-14.5 0.4-14.6 22.9-0.1 22.5zM752.8 436.8l-8 8c-4.2 4.2-4.5 11.8 0 15.9s11.5 4.4 15.9 0l8-8c4.2-4.2 4.5-11.8 0-15.9-4.4-4.1-11.4-4.4-15.9 0z" fill="#322915" p-id="796"></path><path d="M724.7 464.9c-4 4-8.3 7.9-12.1 12.1-3 3.2-4 6.5-7.6 6 0.9 0.1-0.8-0.5-1.4-1-0.2-0.2-1.5-1.6-2-3-0.7-1.9-1-5.2-1.6-7.5-3.5-15.1-9.3-29.9-16.7-43.5-20.2-37.1-53.9-65.3-93.4-79.8-6-2.2-12.2-4.1-18.4-5.5-2.2-0.5-5-0.7-7-1.7-1.1-0.5-2.2-2.7-1.9-4.2 0.6-3.1 5.1-5.2 7.7-7.7 4.7-4.6 9.4-9.2 14.1-13.9 9.1-9 18.3-18 27.4-27 3-3 5.8-6.6 9.7-8.2 4.1-1.7 8.6-2 12.8-0.9 0.8 0.2 1.7 0.4 2.5 0.7-0.3-0.1 3.4 1.3 1.8 0.6-0.7-0.3 1.9 1 2.5 1.3 3.2 1.7 6.5 3.2 9.7 4.9 17.4 9.2 33.9 20.3 48.7 33.3 18.7 16.4 34.9 35.5 48 56.6 5 8.1 9.6 16.6 13.7 25.2 3.2 6.8 7.3 10.6 5.8 17.8-1.2 5.9 1.7 12.2 7.9 13.8 5.6 1.5 12.6-1.9 13.8-7.9 2.3-11.2-0.2-20.4-5.7-30.1-4-7.1-7.1-14.7-11.1-21.7-12-21.2-27-40.9-44.2-58.1-17.1-17.2-36.7-32.1-57.7-44.1-17.1-9.7-35.9-20.6-56-12.7-12.8 5-22 17.2-31.6 26.6-9.8 9.6-19.2 20.2-29.5 29.1-5.2 4.4-9.5 8.1-11.6 14.9-2.1 6.5-1.4 13.7 1.6 19.8 4.5 9.2 12.9 12.8 22.2 15 38.8 9.1 73.7 33.5 95 68.5 9.3 15.4 15.5 31 19.1 48.8 2.7 13.3 13.5 24.2 27.7 23.9 7.1-0.2 14.1-3.7 18.8-8.9 4.8-5.4 9.7-10.6 14.9-15.8 10.3-10-5.6-25.9-15.9-15.7z" fill="#322915" p-id="797"></path><path d="M507.2 419.9c55.5-1.8 111.2 16.8 153.4 51.9 8.2 6.8 15.9 14.1 23.1 21.8 9.9 10.6 25.8-5.3 15.9-15.9-38.7-41.5-91.3-69.8-147.6-77.7-14.9-2.1-29.8-3.1-44.8-2.6-14.4 0.5-14.5 23 0 22.5z" fill="#322915" p-id="798"></path><path d="M571.9 618.3c-0.8 1.4-1.6 2.3-3 3-0.4 0.2-1.9 0.1-1.9 0.1 0.2 0.1-1.7-1.1-1.4-0.8-1.3-1.1-2-2.5-2.5-4.4-1.3-5.2-2.3-10.5-3.8-15.7-5.2-17.2-12.9-33.8-23.1-48.6-23-33.4-57.1-57.9-96.1-69-3.8-1.1-10.9-1.7-13.6-3.3-2-1.2-2.7-3.6-1.6-5.6 0.2-0.4 1.5-1.3 2.2-1.8 2.8-2.2 5.3-4.8 7.9-7.3 9.4-9.2 18.8-18.5 28.1-27.7 4.2-4.2 8.4-8.3 12.7-12.5 3.4-3.4 5.9-5.9 10.6-7.1 3.7-1 7.4-0.7 11 0.3 1.2 0.3 2.3 0.7 3.4 1.2-0.4-0.2-1.7-0.8 0.1 0.1 1.3 0.7 2.6 1.4 3.9 2 7.4 3.7 14.7 7.5 21.7 11.8 18.6 11.3 35.5 24.9 50.6 40.5 16 16.7 29.6 35.5 40.5 55.9 3.5 6.5 6.8 13.1 10.1 19.6 0.1 0.2 0.7 1.8 0.2 0.4 0.5 1.2 0.9 2.5 1.1 3.8 0.3 1.7 0.2 4.4-0.6 6.5-1.3 3.5-2.5 4.7-5.4 7.1-4.7 3.9-4 11.9 0 15.9 4.6 4.6 11.2 3.9 15.9 0 8.5-7.1 13.4-18.6 12.6-29.7-0.7-9.2-5.3-16.2-9.1-24.2-9.4-19.9-21.4-38.3-35.3-55.4-16.6-20.3-36.2-37.9-57.8-52.6-8.5-5.8-17.3-11-26.4-15.8-7.5-3.9-15.2-8.3-23.6-9.8-13.4-2.3-26.9 1.1-36.6 10.7-10.3 10.2-20.6 20.3-31 30.5-4.7 4.6-9.4 9.2-14.1 13.9-5 4.9-10.4 8.4-13.4 15-5.4 12.2-0.7 26.8 10.8 33.6 6 3.5 13.7 4.2 20.3 6.1 8.5 2.5 15.5 5.2 22.9 8.8 21.2 10.3 40.2 25.3 54.5 44.1 13 17.1 21.6 35.4 26.7 55.8 2.6 10.3 4.7 20.1 14.5 26.3 13.3 8.4 29.5 2.7 37.4-10.2 7.6-12.6-11.8-23.9-19.4-11.5z" fill="#322915" p-id="799"></path><path d="M604.6 585.1l-8.4 8.4c-4.2 4.2-4.5 11.8 0 15.9s11.5 4.4 15.9 0l8.4-8.4c4.2-4.2 4.5-11.8 0-15.9s-11.5-4.4-15.9 0zM369 558.2c55.5-1.8 111.2 16.8 153.4 51.9 8.2 6.8 15.9 14.1 23.1 21.8 9.9 10.6 25.8-5.3 15.9-15.9-38.7-41.5-91.3-69.8-147.6-77.7-14.9-2.1-29.8-3.1-44.8-2.6-14.5 0.5-14.5 23 0 22.5z" fill="#322915" p-id="800"></path><path d="M433.7 756.5c-0.8 1.4-1.6 2.3-3 3-0.4 0.2-1.9 0.1-1.9 0.1 0.2 0.1-1.7-1.1-1.4-0.8-1.1-1-1.8-2.2-2.3-3.7-1.6-5.4-2.4-11-4-16.4-5.1-16.9-12.7-33.3-22.7-47.9-22.9-33.6-57.1-58.3-96.1-69.6-4.2-1.2-10.6-1.7-14-3.6-1.4-0.8-2.3-2.6-2-4.1 0.3-1.3 0.3-1.4 1.3-2.4 2.2-2.4 5.4-4.3 7.8-6.7 9.1-9 18.3-18 27.4-27 4.5-4.4 8.9-8.8 13.4-13.2 3.4-3.3 5.9-6.6 10.5-8 3.7-1.2 7.6-1.3 11.3-0.5 4.4 1.1 3.6 1 7.3 2.9 7.2 3.7 14.4 7.3 21.4 11.4 18.4 11 35.3 24.2 50.4 39.5 16.3 16.6 30.1 35.3 41.3 55.7 3.6 6.7 6.6 13.7 10.5 20.3 1.6 2.7 3 5.9 2.2 10.3-0.6 3.7-3.1 6.6-6 9.1-4.6 3.9-4 11.9 0 15.9 4.6 4.6 11.2 3.9 15.9 0 9.9-8.3 14.2-21.5 12-34.1-1.4-7.8-6-14.7-9.5-21.8-9.5-19.6-21.6-37.9-35.5-54.7-17-20.5-37.1-38.3-59.3-53-8.2-5.4-16.7-10.4-25.4-14.8-7.5-3.8-15-8-23.5-9.2-14.1-2-26.6 2.4-36.6 12.2-10.3 10.2-20.6 20.3-31 30.5-4.7 4.6-9.4 9.3-14.1 13.9-5.2 5.1-10.1 8.3-12.8 15.6-4.4 12.2 1.4 26.4 12.9 32.2 6.1 3.1 13.5 3.8 20.1 5.8 8.7 2.6 15.4 5.3 23.2 9.1 20.7 10.3 39.2 25.1 53.2 43.5 13 17 21.6 35.4 26.7 55.8 2.6 10.3 4.7 20.1 14.5 26.3 13.3 8.5 29.5 2.7 37.4-10.2 7.4-12.5-12-23.8-19.6-11.4z" fill="#322915" p-id="801"></path><path d="M467.6 722.1l-10.1 10.1c-4.2 4.2-4.5 11.8 0 15.9s11.5 4.4 15.9 0l10.1-10.1c4.2-4.2 4.5-11.8 0-15.9s-11.5-4.4-15.9 0zM230.8 696.4c55.5-1.8 111.2 16.8 153.4 51.9 8.2 6.8 15.9 14.1 23.1 21.8 9.9 10.6 25.8-5.3 15.9-15.9-38.7-41.5-91.3-69.8-147.6-77.7-14.9-2.1-29.8-3.1-44.8-2.6-14.5 0.5-14.5 23 0 22.5z" fill="#322915" p-id="802"></path><path d="M372.8 841.7c2.2-10.8 0.1-20.4-5.4-29.7-4.1-6.9-7.1-14.5-11-21.5-11.6-20.6-26-39.7-42.5-56.6-17-17.4-36.4-32.6-57.4-44.8-16.2-9.5-34.4-20.5-53.9-15.5-13 3.3-21.2 13.5-30.4 22.6-9.8 9.7-19.7 19.4-29.5 29.1-4 4-8.9 7.3-12.4 11.7-4.3 5.3-6.5 12-6 18.8 1 12 9.8 21.3 21.4 23.9 36.6 8.3 70 28.3 92.3 60 11.6 16.4 19.3 33.3 24 52.5 2.6 10.5 5.1 20.2 15.3 26.1 13.2 7.6 28.7 1.6 36.3-10.8 7.6-12.4-11.9-23.7-19.4-11.4-1.5 2.5-3.1 3.4-5.2 3.1 0.8 0.1-1.3-1-1.1-0.8-1-0.9-1.7-1.9-2.1-3-1.8-5.1-2.4-10.9-3.9-16.1-4.8-16.2-11.9-32-21.2-46.2-22.1-33.8-55.6-59-94.1-71.1-5-1.6-10.1-2.8-15.2-4-4.1-0.9-6.4-3.8-3.4-7.3 1-1.2 3-2.1 4.3-3.2 1.2-1.1 2.3-2.3 3.5-3.5 2.1-2.1 4.2-4.2 6.3-6.2 4.5-4.4 8.9-8.8 13.4-13.2 4.2-4.2 8.4-8.3 12.7-12.5 4.6-4.5 9-9.8 14.1-13.9 5.9-4.7 14.2-4.1 20.8-1.4-1.8-0.7 0.9 0.5 1.5 0.8 1.3 0.7 2.7 1.4 4 2 3.4 1.7 6.8 3.5 10.2 5.3 17.1 9.3 33.1 20.6 47.5 33.6 17.9 16.2 33.5 34.8 46 55.4 4.8 7.9 9.2 16.1 13.2 24.5 3.2 6.7 7.1 10.2 5.6 17.3-1.2 5.9 1.7 12.2 7.9 13.8 5.5 1.5 12.6-1.9 13.8-7.8z" fill="#322915" p-id="803"></path><path d="M332.1 857.6l-7.9 7.9c-4.2 4.2-4.5 11.8 0 15.9s11.5 4.4 15.9 0l7.9-7.9c4.2-4.2 4.5-11.8 0-15.9s-11.5-4.4-15.9 0z" fill="#322915" p-id="804"></path><path d="M446.2 974.7m-22.7 0a22.7 22.7 0 1 0 45.4 0 22.7 22.7 0 1 0-45.4 0Z" fill="#D38437" p-id="805"></path><path d="M921.9 564m-14.8 0a14.8 14.8 0 1 0 29.6 0 14.8 14.8 0 1 0-29.6 0Z" fill="#D38437" p-id="806"></path><path d="M112.7 567.7c-3.7 0-6.8-3-6.8-6.8v-56.4c0-3.7 3-6.8 6.8-6.8 3.7 0 6.8 3 6.8 6.8v56.4c0 3.7-3.1 6.8-6.8 6.8z" fill="#D38437" p-id="807"></path><path d="M147.7 532.7c0 3.7-3 6.8-6.8 6.8H84.5c-3.7 0-6.8-3-6.8-6.8 0-3.7 3-6.8 6.8-6.8h56.4c3.7 0 6.8 3.1 6.8 6.8z" fill="#D38437" p-id="808"></path><path d="M163.3 96.9c2.3 0 4.2 1.9 4.2 4.2v16.6c0 2.3-1.9 4.2-4.2 4.2-2.3 0-4.2-1.9-4.2-4.2v-16.6c0-2.3 1.9-4.2 4.2-4.2zM140.4 103.4c2-1.2 4.6-0.5 5.8 1.5l8.3 14.4c1.2 2 0.5 4.6-1.5 5.8-2 1.2-4.6 0.5-5.8-1.5l-8.3-14.4c-1.2-2-0.5-4.6 1.5-5.8zM123.9 120.5c1.2-2 3.7-2.7 5.8-1.5l14.4 8.3c2 1.2 2.7 3.7 1.5 5.8-1.2 2-3.7 2.7-5.8 1.5l-14.4-8.3c-1.9-1.2-2.6-3.8-1.5-5.8zM118.2 143.6c0-2.3 1.9-4.2 4.2-4.2H139c2.3 0 4.2 1.9 4.2 4.2 0 2.3-1.9 4.2-4.2 4.2h-16.6c-2.3 0-4.2-1.9-4.2-4.2zM124.8 166.4c-1.2-2-0.5-4.6 1.5-5.8l14.4-8.3c2-1.2 4.6-0.5 5.8 1.5 1.2 2 0.5 4.6-1.5 5.8l-14.4 8.3c-2.1 1.2-4.7 0.5-5.8-1.5zM141.9 182.9c-2-1.2-2.7-3.7-1.5-5.8l8.3-14.4c1.2-2 3.7-2.7 5.8-1.5 2 1.2 2.7 3.7 1.5 5.8l-8.3 14.4c-1.2 2-3.8 2.7-5.8 1.5zM164.9 188.6c-2.3 0-4.2-1.9-4.2-4.2v-16.6c0-2.3 1.9-4.2 4.2-4.2 2.3 0 4.2 1.9 4.2 4.2v16.6c0 2.4-1.9 4.2-4.2 4.2zM187.7 182.1c-2 1.2-4.6 0.5-5.8-1.5l-8.3-14.4c-1.2-2-0.5-4.6 1.5-5.8 2-1.2 4.6-0.5 5.8 1.5l8.3 14.4c1.2 2 0.5 4.6-1.5 5.8zM204.2 165c-1.2 2-3.7 2.7-5.8 1.5l-14.4-8.3c-2-1.2-2.7-3.7-1.5-5.8 1.2-2 3.7-2.7 5.8-1.5l14.4 8.3c2 1.2 2.7 3.8 1.5 5.8zM210 141.9c0 2.3-1.9 4.2-4.2 4.2h-16.6c-2.3 0-4.2-1.9-4.2-4.2 0-2.3 1.9-4.2 4.2-4.2h16.6c2.3 0 4.2 1.9 4.2 4.2zM203.4 119.1c1.2 2 0.5 4.6-1.5 5.8l-14.4 8.3c-2 1.2-4.6 0.5-5.8-1.5-1.2-2-0.5-4.6 1.5-5.8l14.4-8.3c2.1-1.2 4.7-0.5 5.8 1.5zM186.3 102.6c2 1.2 2.7 3.7 1.5 5.8l-8.3 14.4c-1.2 2-3.7 2.7-5.8 1.5-2-1.2-2.7-3.7-1.5-5.8l8.3-14.4c1.2-1.9 3.8-2.6 5.8-1.5z" fill="#D38437" p-id="809"></path></svg>